<svg xmlns="http://www.w3.org/2000/svg" viewBox="0 0 620 180" width="620" height="180" font-family="'JetBrains Mono',Menlo,Consolas,monospace">
  <rect width="620" height="180" fill="#efede7"/>
  <g fill="none" stroke="#1c1b18" stroke-width="1">
    <rect x="20" y="60" width="120" height="60"/>
    <rect x="180" y="60" width="120" height="60"/>
    <rect x="340" y="60" width="120" height="60"/>
    <rect x="500" y="60" width="100" height="60"/>
  </g>
  <rect x="20" y="60" width="4" height="60" fill="#2a3a78"/>
  <rect x="180" y="60" width="4" height="60" fill="#2a3a78"/>
  <rect x="340" y="60" width="4" height="60" fill="#2a3a78"/>
  <rect x="500" y="60" width="4" height="60" fill="#2a3a78"/>
  <g fill="#1c1b18" font-size="13" text-anchor="middle">
    <text x="80" y="95">写 .md</text>
    <text x="240" y="95">git push</text>
    <text x="400" y="95">Actions</text>
    <text x="550" y="95">上线</text>
  </g>
  <g stroke="#5c574f" stroke-width="1" fill="#5c574f">
    <path d="M140 90 L175 90" fill="none"/>
    <path d="M170 85 L178 90 L170 95 z"/>
    <path d="M300 90 L335 90" fill="none"/>
    <path d="M330 85 L338 90 L330 95 z"/>
    <path d="M460 90 L495 90" fill="none"/>
    <path d="M490 85 L498 90 L490 95 z"/>
  </g>
  <text x="20" y="40" fill="#8a847a" font-size="11" letter-spacing="2">发布流程</text>
</svg>
